<svg viewBox="0 0 150 150" fill="none" xmlns="http://www.w3.org/2000/svg">
  <path
    d="M130 0C141.046 0 150 8.95431 150 20V130C150 141.046 141.046 150 130 150H20C8.95431 150 5.63762e-07 141.046 0 130V20C0 8.95431 8.95431 5.63725e-07 20 0H130ZM105.937 51.3311C104.588 53.4165 103.609 55.721 103.029 58.1396C101.937 62.7581 102.603 67.1005 104.944 70.8096C102.118 72.3903 97.582 72.7762 96.6602 72.8096H21.5674C20.6246 72.8108 19.7203 73.1862 19.0527 73.8535C18.3852 74.5209 18.0086 75.4261 18.0049 76.3711C17.9169 82.9648 19.031 89.5194 21.292 95.7119C23.8807 102.511 27.7281 107.52 32.7393 110.586C38.3443 114.028 47.4647 116 57.7959 116C62.465 116.014 67.1198 115.59 71.7129 114.733C78.0913 113.559 84.2291 111.324 89.8721 108.12C94.5271 105.42 98.707 101.987 102.27 97.9492C108.216 91.1978 111.76 83.6801 114.396 77H115.446C121.963 77 125.967 74.3855 128.176 72.1953C129.644 70.8002 130.788 69.1003 131.534 67.2148L132 65.8438L130.874 64.9531C130.564 64.7092 127.68 62.5254 121.593 62.5254C119.987 62.5302 118.381 62.6681 116.795 62.9395C115.617 54.8465 108.946 50.8943 108.645 50.7217L107.011 49.7744L105.937 51.3311ZM28.5264 59.8584C28.2943 59.8597 28.0719 59.9533 27.9082 60.1182C27.7445 60.2831 27.6524 60.5066 27.6523 60.7393V69.7295C27.6526 70.2149 28.0373 70.6104 28.5264 70.6104H38.5957C38.8279 70.6091 39.0511 70.5156 39.2148 70.3506C39.3785 70.1856 39.4696 69.9621 39.4697 69.7295V60.7441C39.4703 60.6287 39.4487 60.5142 39.4053 60.4072C39.3617 60.3001 39.297 60.2024 39.2158 60.1201C39.1347 60.0379 39.038 59.9726 38.9316 59.9277C38.8253 59.883 38.711 59.859 38.5957 59.8584H28.5264ZM42.3965 59.8584C42.1622 59.8584 41.9372 59.9521 41.7715 60.1182C41.6059 60.2842 41.5128 60.5094 41.5127 60.7441V69.7295C41.5129 70.2149 41.9121 70.6104 42.3965 70.6104H52.4609C52.694 70.6104 52.9182 70.5168 53.083 70.3516C53.2475 70.1865 53.3397 69.9628 53.3398 69.7295V60.7441C53.3404 60.6287 53.3188 60.5141 53.2754 60.4072C53.2318 60.3001 53.1671 60.2024 53.0859 60.1201C53.0048 60.0379 52.9081 59.9726 52.8018 59.9277C52.6954 59.8829 52.5812 59.859 52.4658 59.8584H42.3965ZM56.4707 59.8584C56.2385 59.8597 56.0153 59.9531 55.8516 60.1182C55.6879 60.2831 55.5968 60.5066 55.5967 60.7393V69.7295C55.5969 70.2148 55.9905 70.6101 56.4746 70.6104H66.54C66.7721 70.6091 66.9945 70.5154 67.1582 70.3506C67.3219 70.1856 67.4139 69.9621 67.4141 69.7295V60.7441C67.4147 60.6287 67.3931 60.5142 67.3496 60.4072C67.306 60.3001 67.2413 60.2024 67.1602 60.1201C67.079 60.0379 66.9823 59.9726 66.876 59.9277C66.7697 59.8829 66.6554 59.859 66.54 59.8584H56.4707ZM70.3877 59.8584C70.1547 59.8584 69.9314 59.952 69.7666 60.1172C69.602 60.2823 69.5089 60.5058 69.5088 60.7393V69.7295C69.509 70.2149 69.8986 70.6103 70.3877 70.6104H80.4482C80.6816 70.6104 80.9058 70.5175 81.0713 70.3525C81.2367 70.1876 81.3307 69.9634 81.332 69.7295V60.7441C81.332 60.5094 81.2388 60.2842 81.0732 60.1182C80.9076 59.9521 80.6826 59.8584 80.4482 59.8584H70.3877ZM84.4189 59.8584C84.186 59.8585 83.9626 59.9521 83.7979 60.1172C83.6333 60.2823 83.5411 60.5059 83.541 60.7393V69.7295C83.5413 70.2148 83.9348 70.6102 84.4189 70.6104H94.4844C94.7177 70.6104 94.9419 70.5174 95.1074 70.3525C95.2729 70.1876 95.3668 69.9634 95.3682 69.7295V60.7441C95.3681 60.5094 95.275 60.2842 95.1094 60.1182C94.9437 59.9521 94.7187 59.8584 94.4844 59.8584H84.4189ZM42.3965 46.9316C42.1631 46.9316 41.939 47.0245 41.7734 47.1895C41.6079 47.3545 41.514 47.5785 41.5127 47.8125V56.7969C41.5127 57.2825 41.912 57.6779 42.3965 57.6826H52.4609C52.6944 57.6814 52.9183 57.5878 53.083 57.4219C53.2477 57.2559 53.3398 57.0309 53.3398 56.7969V47.8125C53.3398 47.5789 53.2478 47.3546 53.083 47.1895C52.9182 47.0243 52.694 46.9316 52.4609 46.9316H42.3965ZM56.4746 46.9316C56.2417 46.9318 56.0182 47.0244 55.8535 47.1895C55.6887 47.3546 55.5967 47.5789 55.5967 47.8125V56.7969C55.5967 57.2824 55.9903 57.6776 56.4746 57.6826H66.54C66.7727 57.6801 66.9955 57.5857 67.1592 57.4199C67.3227 57.2541 67.4141 57.03 67.4141 56.7969V47.8125C67.414 47.5789 67.322 47.3546 67.1572 47.1895C66.9924 47.0243 66.7682 46.9316 66.5352 46.9316H56.4746ZM70.3877 46.9316C70.1548 46.9317 69.9314 47.0244 69.7666 47.1895C69.6018 47.3546 69.5088 47.5789 69.5088 47.8125V56.7969C69.5088 57.2825 69.8985 57.6778 70.3877 57.6826H80.4482C80.6821 57.6814 80.9059 57.5876 81.0713 57.4219C81.2367 57.2561 81.3308 57.0314 81.332 56.7969V47.8125C81.3307 47.5785 81.2368 47.3545 81.0713 47.1895C80.9057 47.0244 80.6817 46.9316 80.4482 46.9316H70.3877ZM70.3877 34C70.1548 34 69.9314 34.0928 69.7666 34.2578C69.6018 34.423 69.5088 34.6472 69.5088 34.8809V43.8701C69.5088 44.3557 69.8985 44.7558 70.3877 44.7559H80.4482C80.6826 44.7559 80.9076 44.6622 81.0732 44.4961C81.2387 44.33 81.332 44.1049 81.332 43.8701V34.8809C81.3308 34.6468 81.2368 34.4229 81.0713 34.2578C80.9057 34.0928 80.6817 34 80.4482 34H70.3877Z"
    fill="currentColor" />
</svg>