<svg viewBox="0 0 150 150" fill="none" xmlns="http://www.w3.org/2000/svg">
  <path
    d="M130 0C141.046 0 150 8.95431 150 20V130C150 141.046 141.046 150 130 150H20C8.95431 150 5.63762e-07 141.046 0 130V20C0 8.95431 8.95431 5.63725e-07 20 0H130ZM80.4668 14.248C79.3326 14.1299 71.523 14.0002 70.542 14.0947C70.2821 14.1184 69.4552 14.2007 68.7109 14.2598C51.5434 15.8076 35.4621 25.0712 25.2773 39.3086C19.6062 47.2247 15.9789 56.2047 14.6084 65.7158C14.124 69.0355 14.0654 70.0163 14.0654 74.5176C14.0654 79.0192 14.124 80.0002 14.6084 83.3203C17.8931 106.017 34.0448 125.087 55.9502 132.152C59.8728 133.417 64.0085 134.279 68.7109 134.799C70.5429 135 78.4571 135 80.2891 134.799C88.4061 133.901 95.2835 131.893 102.065 128.431C103.105 127.899 103.306 127.757 103.164 127.639C103.069 127.567 98.6377 121.625 93.3213 114.441L83.6572 101.386L71.5459 83.4619C64.8821 73.608 59.3998 65.5498 59.3525 65.5498C59.3054 65.5662 59.258 73.5189 59.2344 83.2256C59.1989 100.247 59.1871 100.936 58.9746 101.338C58.6674 101.917 58.4308 102.153 57.9346 102.413C57.5566 102.602 57.2259 102.638 55.4424 102.638H53.3984L52.8545 102.295C52.5001 102.07 52.2397 101.775 52.0625 101.433L51.8145 100.901L51.8379 77.2119L51.874 53.5098L52.2402 53.0498C52.4292 52.8018 52.8307 52.4828 53.1143 52.3291C53.5987 52.0928 53.788 52.0684 55.832 52.0684C58.2422 52.0684 58.6443 52.1634 59.2705 52.8486C59.4529 53.0456 66.0085 62.9204 73.8506 74.8135C81.6959 86.7114 92.4238 102.957 97.6934 110.933L107.264 125.43L107.748 125.11C112.037 122.322 116.574 118.352 120.166 114.217C127.81 105.438 132.737 94.7337 134.392 83.3203C134.876 80.0002 134.935 79.0192 134.935 74.5176C134.935 70.0163 134.876 69.0355 134.392 65.7158C131.107 43.0187 114.955 23.9483 93.0498 16.8828C89.1863 15.6304 85.0746 14.7679 80.4668 14.248ZM104.156 127.272C104.156 127.19 104.144 127.202 103.778 127.402C103.329 127.639 103.353 127.733 103.802 127.509C104.003 127.402 104.156 127.296 104.156 127.272ZM104.983 126.8C104.983 126.706 104.924 126.729 104.676 126.93C104.463 127.095 104.464 127.108 104.724 126.978C104.865 126.907 104.983 126.823 104.983 126.8ZM105.574 126.445C105.574 126.351 105.514 126.376 105.267 126.576C105.054 126.741 105.055 126.753 105.314 126.623C105.456 126.552 105.574 126.469 105.574 126.445ZM106.165 126.091C106.165 125.997 106.105 126.021 105.857 126.222C105.645 126.387 105.645 126.398 105.905 126.269C106.047 126.198 106.165 126.114 106.165 126.091ZM107.11 125.441C107.075 125.441 106.874 125.559 106.673 125.689C106.259 125.949 106.13 126.127 106.496 125.926C106.756 125.772 107.18 125.454 107.11 125.441ZM92.8369 50.415C94.5856 50.415 94.8933 50.4387 95.2832 50.6514C95.8501 50.935 96.3112 51.4779 96.4766 52.0449C96.5711 52.3521 96.5949 58.9221 96.5713 73.7266L96.5352 94.9697L92.79 89.2275L89.0332 83.4854V68.043C89.0332 58.0591 89.0805 52.4466 89.1514 52.1748C89.3404 51.5134 89.7534 50.9937 90.3203 50.6865C90.8047 50.4384 90.9822 50.415 92.8369 50.415Z"
    fill="currentColor" />
</svg>
