<svg viewBox="0 0 150 150" fill="none" xmlns="http://www.w3.org/2000/svg">
  <path
    d="M130 0C141.046 0 150 8.95442 150 20V130C150 141.046 141.046 150 130 150H20C8.95431 150 0 141.046 0 130V20C0.000138132 8.95442 8.95439 5.63714e-07 20 0H130ZM80.0889 12.3633C76.9291 10.5424 72.8099 10.5505 69.6475 12.3633C53.809 21.32 37.9701 30.2789 22.1289 39.2314C19.0464 40.8932 16.9668 44.2858 17 47.8066V101.924C16.9777 105.513 19.1642 108.939 22.3262 110.578C26.8764 113.059 31.2973 115.791 35.9297 118.106C41.2806 120.801 47.9753 121.396 53.3916 118.587C57.7882 116.258 59.7417 111.078 59.7363 106.318C59.7718 88.458 59.7418 70.5967 59.75 52.7363C59.8543 51.9427 59.2725 51.0942 58.4277 51.1133C56.4036 51.0805 54.3767 51.0948 52.3525 51.1084C51.5876 51.0343 50.8418 51.6848 50.8994 52.4727C50.8722 70.2179 50.9046 87.9688 50.8828 105.717C50.9268 108.172 49.3079 110.531 46.999 111.36C44.3826 112.341 41.4665 111.581 39.0918 110.301C34.8765 107.917 30.6589 105.541 26.4463 103.148C26.167 103.016 25.9347 102.801 25.7812 102.532C25.6279 102.264 25.5605 101.955 25.5879 101.646C25.5879 83.7916 25.5906 65.9361 25.5879 48.084C25.5111 47.3643 25.9438 46.7157 26.5889 46.4219C42.3751 37.518 58.1532 28.592 73.9395 19.6826C74.2135 19.4951 74.5382 19.395 74.8701 19.3955C75.202 19.396 75.5263 19.4973 75.7998 19.6855C91.5861 28.5922 107.367 37.5107 123.156 46.415C123.803 46.7085 124.217 47.3672 124.151 48.084C124.149 65.9361 124.157 83.7914 124.146 101.644C124.193 102.275 123.875 102.888 123.299 103.165C107.754 111.968 92.1866 120.734 76.6387 129.534C75.8956 129.949 75.0149 130.617 74.1455 130.114C70.07 127.804 66.0443 125.404 61.9824 123.071C61.5409 122.789 60.9782 122.668 60.5176 122.983C58.6961 123.967 56.8753 124.981 54.8926 125.612C54.0123 125.969 52.9282 126.071 52.3223 126.889C53.0077 127.831 54.1025 128.293 55.0732 128.872C59.8238 131.627 64.582 134.371 69.332 137.129C72.459 139.128 76.6609 139.271 79.8887 137.423C95.7301 128.477 111.566 119.521 127.41 110.575C130.564 108.927 132.762 105.516 132.739 101.924V47.8066C132.77 44.3572 130.77 41.0251 127.78 39.3389C111.887 30.3385 95.9851 21.3582 80.0889 12.3633ZM103.99 52.9951C97.773 49.5867 90.3768 49.4053 83.4678 49.8506C78.4765 50.356 73.2265 51.7672 69.5898 55.4336C65.86 59.1196 65.0488 65.072 66.8203 69.8838C68.0901 73.2833 71.2854 75.4946 74.5898 76.6641C82.7299 79.6085 91.6516 78.6639 99.8711 81.2676C101.473 81.8116 103.338 82.6433 103.829 84.4287C104.282 86.5434 103.785 89.0014 102.109 90.4707C98.9334 93.0466 94.5647 93.0996 90.6729 93.2725C85.9751 93.1983 80.8264 93.3801 76.7236 90.7295C74.5979 89.2821 73.6821 86.7196 73.3096 84.2783C73.2682 83.5174 72.6703 82.8194 71.8643 82.877C69.8456 82.8524 67.8263 82.8576 65.8076 82.874C65.1032 82.8136 64.3707 83.3271 64.332 84.0635C64.1703 88.4245 65.7997 92.9428 69.1348 95.8428C73.0349 99.2899 78.2926 100.619 83.3447 101.196C88.7174 101.721 94.2076 101.69 99.498 100.509C103.475 99.5808 107.462 97.8725 110.2 94.7334C113.576 90.9187 114.24 85.2391 112.726 80.4873C111.568 76.9421 108.261 74.6671 104.88 73.4971C96.7126 70.6272 87.8888 70.8448 79.5625 68.6641C78.1171 68.2083 76.3502 67.7132 75.7061 66.1807C75.0231 64.0465 75.6047 61.3968 77.5186 60.084C80.0119 58.3509 83.1771 58.095 86.1201 57.9385C90.1513 57.8998 94.4378 57.8068 98.1348 59.6602C100.543 60.8961 101.939 63.4347 102.515 65.9971C102.621 66.7498 103.117 67.5347 103.967 67.502C105.971 67.5429 107.976 67.5129 109.98 67.5156C110.669 67.5652 111.423 67.1667 111.558 66.4443C111.473 61.0889 108.804 55.6071 103.99 52.9951Z"
    fill="currentColor" />
</svg>