<svg viewBox="0 0 150 150" fill="none" xmlns="http://www.w3.org/2000/svg">
  <path
    d="M130 0C141.046 0 150 8.95431 150 20V130C150 141.046 141.046 150 130 150H20C8.95431 150 5.63762e-07 141.046 0 130V20C0 8.95431 8.95431 5.63725e-07 20 0H130ZM99.9688 16C94.4045 16 88.5672 18.5966 82.3311 23.5117C79.7909 25.508 77.1454 27.9335 74.416 30.7451C74.185 30.4661 73.9541 30.1874 73.6816 29.9512C65.9127 22.8894 59.383 18.5112 53.7979 16.8154C50.4809 15.8066 47.3723 15.7205 44.5381 16.6865C41.5358 17.7169 39.142 19.8417 37.4629 22.8252C34.6916 27.7402 33.9566 34.2222 34.9854 42.207C35.4057 45.4479 36.1396 48.9901 37.1475 52.832C36.7553 52.8791 36.3687 52.9653 35.9932 53.0898C26.1682 56.4373 19.1961 59.9999 14.9756 64.0996C12.4767 66.525 10.8395 69.2517 10.2305 72.2354C9.62165 75.4116 10.2307 78.5879 11.9102 81.5713C14.6815 86.4864 19.7839 90.3505 27.0488 93.4199C29.9675 94.6431 33.2637 95.7597 36.959 96.7686C36.7862 97.1671 36.6593 97.5851 36.5811 98.0137C34.4816 108.402 34.0191 116.387 35.3838 122.16C36.1814 125.616 37.6726 128.428 39.8984 130.445C42.271 132.592 45.2735 133.644 48.6328 133.644C54.197 133.644 60.0329 131.046 66.2695 126.152C68.8307 124.113 71.4972 121.667 74.2686 118.812C74.5662 119.27 74.9191 119.688 75.3184 120.057C83.0873 127.118 89.617 131.497 95.2021 133.192C98.5196 134.201 101.628 134.288 104.462 133.322C107.464 132.292 109.858 130.166 111.537 127.183C114.309 122.268 115.043 115.785 114.015 107.801C113.574 104.431 112.818 100.761 111.727 96.7471C112.161 96.7049 112.589 96.6181 113.007 96.4893C122.832 93.1407 129.804 89.5778 134.024 85.4775C136.523 83.0528 138.161 80.3272 138.77 77.3438C139.379 74.1673 138.769 70.9899 137.09 68.0068C134.318 63.0912 129.216 59.2276 121.951 56.1582C118.949 54.8922 115.526 53.7325 111.705 52.7236C111.851 52.3799 111.957 52.0205 112.021 51.6514C114.12 41.2417 114.581 33.2782 113.217 27.4834C112.419 24.0273 110.95 21.2368 108.703 19.1982C106.331 17.0515 103.328 16 99.9688 16ZM47.2471 84.2764C48.1285 83.7612 49.263 84.0838 49.7666 85.0068L50.1025 85.5859C52.6852 90.2648 55.3727 94.7086 58.165 98.916C61.4614 103.874 65.178 108.896 69.3145 113.982C69.6292 114.365 69.7834 114.859 69.7441 115.357C69.7048 115.856 69.4752 116.319 69.1045 116.645L68.7051 117.01C55.0365 129.223 46.1767 131.647 42.082 124.328C38.0723 117.16 39.5204 104.153 46.4277 85.2646C46.5784 84.8471 46.8687 84.4966 47.2471 84.2764ZM105.406 98.6367C106.393 98.4647 107.339 99.1089 107.527 100.117L107.632 100.676C111.012 118.727 108.64 127.764 100.514 127.764C92.5566 127.763 82.4571 120.057 70.1533 104.668C69.877 104.325 69.7353 103.888 69.7549 103.444C69.7549 102.414 70.5947 101.576 71.6025 101.576H72.2529C77.2902 101.617 82.3272 101.438 87.3496 101.04C93.1024 100.567 99.1283 99.7741 105.406 98.6367ZM84.4102 53.4971C85.0091 53.4973 85.5978 53.658 86.1172 53.9629C86.6365 54.2679 87.0691 54.7066 87.3711 55.2354L97.3027 72.9219C97.5918 73.4498 97.7432 74.0454 97.7432 74.6504C97.7431 75.2553 97.5918 75.8501 97.3027 76.3779L87.3711 94.0859C87.0693 94.6146 86.6373 95.0534 86.1182 95.3584C85.5989 95.6634 85.01 95.8239 84.4111 95.8242H64.5908C63.3728 95.8242 62.239 95.1591 61.6504 94.0859L51.6982 76.3779C51.4092 75.8501 51.2579 75.2553 51.2578 74.6504C51.2578 74.0453 51.4091 73.4498 51.6982 72.9219L61.6514 55.2354C62.2389 54.1625 63.3726 53.4971 64.5898 53.4971H84.4102ZM111.055 59.2236C111.502 59.0071 112.014 58.9773 112.482 59.1416L113.028 59.335C130.56 65.4308 137.237 72.1492 133.017 79.4688C128.901 86.6378 116.933 91.8539 97.0918 95.1162C96.651 95.1805 96.1884 95.0947 95.8105 94.8584C94.9078 94.3221 94.5935 93.1632 95.1387 92.2402L95.4746 91.6611C98.1836 87.0246 100.619 82.41 102.824 77.7949C105.386 72.3645 107.82 66.5261 110.088 60.3018C110.26 59.8273 110.607 59.4403 111.055 59.2236ZM67.0469 57.8545C65.829 57.8545 64.6955 58.5198 64.1074 59.5928L56.6123 72.9219C56.3231 73.4499 56.1709 74.0453 56.1709 74.6504C56.171 75.2554 56.3232 75.8501 56.6123 76.3779L64.1074 89.7285C64.6954 90.8016 65.8289 91.4677 67.0469 91.4678H81.9541C82.5531 91.4676 83.1417 91.3069 83.6611 91.002C84.1806 90.6969 84.6131 90.2574 84.915 89.7285L92.3896 76.3779C92.6786 75.8501 92.83 75.2552 92.8301 74.6504C92.8301 74.0454 92.6788 73.4498 92.3896 72.9219L84.915 59.5928C84.6131 59.0639 84.1805 58.6253 83.6611 58.3203C83.1417 58.0153 82.5531 57.8547 81.9541 57.8545H67.0469ZM51.9092 54.8926C52.3498 54.8284 52.8117 54.9143 53.1895 55.1504C54.0924 55.6867 54.4068 56.8454 53.8613 57.7686L53.5254 58.3477C50.8865 62.8621 48.4348 67.4885 46.1768 72.2139C43.6151 77.6443 41.1798 83.4826 38.9121 89.707C38.74 90.1813 38.3934 90.5685 37.9463 90.7852C37.4992 91.0017 36.9865 91.0313 36.5186 90.8672L35.9727 90.6729C18.441 84.5769 11.764 77.8596 15.9844 70.54C20.0995 63.371 32.0678 58.1548 51.9092 54.8926ZM79.3086 62.6191C80.5265 62.6192 81.6391 63.2639 82.248 64.3584L87.0771 72.9219C87.3663 73.4498 87.5186 74.0453 87.5186 74.6504C87.5185 75.2553 87.3662 75.8501 87.0771 76.3779L82.249 84.9639C81.9515 85.4919 81.5228 85.9302 81.0068 86.2354C80.4907 86.5405 79.9048 86.7018 79.3086 86.7021H69.6924C69.0963 86.7016 68.5111 86.5405 67.9951 86.2354C67.4791 85.9302 67.0505 85.4919 66.7529 84.9639L61.9238 76.3779C61.6348 75.8501 61.4834 75.2553 61.4834 74.6504C61.4834 74.0454 61.6347 73.4498 61.9238 72.9219L66.752 64.3584C67.3615 63.2639 68.4745 62.6192 69.6924 62.6191H79.3086ZM72.2539 67.1699C71.6579 67.1705 71.0725 67.3316 70.5566 67.6367C70.0407 67.9419 69.612 68.3802 69.3145 68.9082L67.0469 72.9219C66.4384 73.9956 66.4384 75.3262 67.0469 76.3779L69.3145 80.4131C69.612 80.9411 70.0407 81.3804 70.5566 81.6855C71.0725 81.9906 71.658 82.1518 72.2539 82.1523H76.7471C77.9645 82.1523 79.099 81.4862 79.6865 80.4131L81.9551 76.3779C82.5634 75.3263 82.5635 73.9949 81.9551 72.9219L79.6865 68.9082C79.099 67.8351 77.9645 67.1699 76.7471 67.1699H72.2539ZM74.501 71.6562C75.016 71.6578 75.521 71.7969 75.9668 72.0605C76.4126 72.3242 76.783 72.7026 77.041 73.1582C77.5656 74.0808 77.5656 75.2191 77.041 76.1631C76.7819 76.6161 76.4108 76.9919 75.9648 77.252C75.519 77.5118 75.0142 77.6471 74.501 77.6445C73.9876 77.6472 73.4821 77.5119 73.0361 77.252C72.5902 76.9919 72.2191 76.6162 71.96 76.1631C71.4354 75.2191 71.4354 74.0813 71.96 73.1582C72.218 72.7027 72.5885 72.3242 73.0342 72.0605C73.48 71.7969 73.986 71.6578 74.501 71.6562ZM80.2949 32.999C93.9636 20.7857 102.824 18.3616 106.919 25.6807C110.928 32.8492 109.48 45.8561 102.572 64.7441C102.422 65.1615 102.132 65.5113 101.754 65.7314C100.872 66.2469 99.738 65.9251 99.2344 65.002L98.8984 64.4229C96.3157 59.744 93.6283 55.3001 90.8359 51.0928C87.5395 46.1349 83.8231 41.1119 79.6865 36.0254C79.3718 35.6429 79.2165 35.1487 79.2559 34.6504C79.2953 34.1522 79.5258 33.6902 79.8965 33.3643L80.2949 32.999ZM49.1582 21.5596C57.1158 21.5598 67.2359 29.2645 79.5186 44.6533C79.7888 44.9933 79.937 45.4184 79.9385 45.8564C79.9173 46.9079 79.0989 47.745 78.0703 47.7451L77.4404 47.7236C72.403 47.7005 67.3664 47.8861 62.3438 48.2812C56.5699 48.7538 50.5436 49.5481 44.2656 50.6855C43.7905 50.7683 43.3025 50.6575 42.9062 50.377C42.51 50.0962 42.2366 49.6676 42.1455 49.1836L42.04 48.6465C38.6591 30.5955 41.0322 21.5596 49.1582 21.5596Z"
    fill="currentColor" />
</svg>