<svg viewBox="0 0 150 150" fill="none" xmlns="http://www.w3.org/2000/svg">
  <path
    d="M130 0C141.046 0 150 8.95431 150 20V130C150 141.046 141.046 150 130 150H20C8.95431 150 5.63762e-07 141.046 0 130V20C0 8.95431 8.95431 5.63725e-07 20 0H130ZM101.528 14C94.0732 14 84.3132 19.5159 74.4453 29.085C64.5776 19.5725 54.8183 14.1123 47.3633 14.1123V14.1406C45.0861 14.1406 43.0256 14.6473 41.2363 15.7168C33.6186 20.2762 31.911 34.4888 35.8418 52.332C18.9796 57.7357 8.00008 66.3764 8 75.4951C8 84.642 19.0338 93.311 35.9502 98.6865C32.0466 116.586 33.7814 130.826 41.4258 135.386C43.1879 136.455 45.2492 136.962 47.5264 136.962C54.9815 136.962 64.7407 131.446 74.6084 121.877C84.4763 131.39 94.2362 136.85 101.691 136.85C103.968 136.85 106.028 136.343 107.817 135.273C115.435 130.714 117.144 116.502 113.213 98.6582C130.021 93.2826 141 84.6138 141 75.4951C141 66.3483 129.966 57.6802 113.05 52.3047C116.954 34.4053 115.219 20.1641 107.574 15.6045C105.819 14.5393 103.768 14.0324 101.528 14.0283V14ZM41.752 100.375C47.0652 101.726 52.8665 102.767 58.9658 103.442C62.6256 108.649 66.4217 113.377 70.2441 117.515C61.4064 126.042 53.1105 130.714 47.4717 130.714C46.2517 130.686 45.2215 130.433 44.4082 129.954C40.7214 127.759 39.1222 119.4 40.3691 108.649C40.6673 106.004 41.1556 103.218 41.752 100.375ZM107.303 100.318C107.926 103.161 108.414 105.891 108.712 108.509C109.986 119.26 108.414 127.618 104.754 129.842C103.941 130.348 102.884 130.573 101.637 130.573C96.025 130.573 87.702 125.929 78.8643 117.458C82.6596 113.321 86.455 108.621 90.0605 103.414C96.1873 102.739 101.989 101.697 107.303 100.318ZM82.0098 104.062C79.57 107.354 77.0486 110.366 74.5547 113.067C72.0335 110.366 69.5117 107.354 67.0176 104.062C69.4574 104.174 71.9515 104.259 74.4727 104.259C77.021 104.259 79.5428 104.202 82.0098 104.062ZM74.5 53.0361C78.5935 53.0361 82.687 53.2336 86.6992 53.5713C88.9492 56.9204 91.1453 60.4944 93.2598 64.2656C95.32 67.9524 97.1906 71.6956 98.8984 75.4668C97.1906 79.238 95.3203 83.0095 93.2871 86.6963C91.1727 90.4956 89.0039 94.0982 86.7539 97.4473C82.7146 97.8131 78.6207 98.0107 74.5 98.0107C70.4065 98.0107 66.313 97.8133 62.3008 97.4756C60.0508 94.1265 57.8547 90.5525 55.7402 86.7812C53.68 83.0945 51.8094 79.3513 50.1016 75.5801C51.7824 71.8087 53.6797 68.0365 55.7129 64.3496C57.8274 60.5503 59.9961 56.9477 62.2461 53.5986C66.2854 53.2328 70.3793 53.0361 74.5 53.0361ZM46.9297 83.1504C48.0412 85.4019 49.2063 87.6537 50.4805 89.9053C51.7546 92.1568 53.0564 94.3522 54.3848 96.4912C50.5352 95.9002 46.8209 95.1682 43.2695 94.2676C44.2726 90.637 45.52 86.8936 46.9297 83.1504ZM102.043 83.0381C103.507 86.8094 104.754 90.5806 105.784 94.2393C102.233 95.1398 98.4918 95.9002 94.6152 96.4912C95.9436 94.3241 97.2725 92.1 98.5195 89.8203C99.7664 87.569 100.932 85.2894 102.043 83.0381ZM37.333 58.4121C38.8782 63.9282 40.9115 69.6698 43.4326 75.5518C40.9386 81.4056 38.9322 87.1185 37.4141 92.6064C34.7302 91.734 32.1818 90.7777 29.8232 89.7363C20.2264 85.4865 14.0186 79.9138 14.0186 75.4951C14.0186 71.0765 20.2265 65.4755 29.8232 61.2539C32.1547 60.2126 34.7034 59.2846 37.333 58.4121ZM111.559 58.3838C114.242 59.2563 116.791 60.2126 119.177 61.2539C128.774 65.5037 134.981 71.0765 134.981 75.4951C134.954 79.9138 128.746 85.5147 119.149 89.7363C116.818 90.7776 114.27 91.7067 111.641 92.5791C110.095 87.0628 108.062 81.3206 105.541 75.4385C108.035 69.5848 110.041 63.8716 111.559 58.3838ZM74.4727 62.6328C67.6305 62.6329 62.084 68.3918 62.084 75.4951C62.084 82.5985 67.6304 88.3573 74.4727 88.3574C81.315 88.3574 86.8623 82.5986 86.8623 75.4951C86.8623 68.3917 81.3149 62.6328 74.4727 62.6328ZM54.3574 54.5C53.0291 56.667 51.7011 58.8904 50.4541 61.1699C49.2071 63.4215 48.0412 65.6733 46.9297 67.9248C45.4658 64.1535 44.2186 60.3814 43.1885 56.7227C46.7397 55.8502 50.4809 55.091 54.3574 54.5ZM94.5879 54.5C98.4374 55.091 102.152 55.8221 105.703 56.7227C104.7 60.3533 103.453 64.0967 102.043 67.8398C100.932 65.5884 99.7663 63.3364 98.4922 61.085C97.2452 58.8335 95.9162 56.6388 94.5879 54.5ZM47.3633 20.3887C52.975 20.3887 61.298 25.0325 70.1357 33.5039C66.3405 37.641 62.545 42.3413 58.9395 47.5479C52.8127 48.2233 47.0108 49.2645 41.6973 50.6436C41.0738 47.8294 40.6134 45.0996 40.2881 42.4824C39.0139 31.7313 40.5863 23.3718 44.2461 21.1484C45.0593 20.642 46.1165 20.417 47.3633 20.417V20.3887ZM101.501 20.3047C102.748 20.3047 103.751 20.5577 104.592 21.0361C108.279 23.2314 109.878 31.59 108.631 42.3408C108.333 44.9863 107.844 47.7728 107.248 50.6152C101.935 49.2644 96.1335 48.2233 90.0342 47.5479C86.3744 42.3412 82.5783 37.6128 78.7559 33.4756C87.5793 24.9617 95.8627 20.2914 101.501 20.2764V20.3047ZM74.4189 37.9229C76.94 40.6246 79.4611 43.636 81.9551 46.9287C79.5152 46.8161 77.0212 46.7314 74.5 46.7314C71.9518 46.7314 69.4307 46.788 66.9639 46.9287C69.4037 43.6359 71.9249 40.6246 74.4189 37.9229Z"
    fill="currentColor" />
</svg>