<svg viewBox="0 0 150 150" fill="none" xmlns="http://www.w3.org/2000/svg">
  <path
    d="M130 0C141.046 0 150 8.95431 150 20V130C150 141.046 141.046 150 130 150H20C8.95431 150 5.63762e-07 141.046 0 130V20C0 8.95431 8.95431 5.63725e-07 20 0H130ZM61.7734 33C48.2096 33 41.4276 33.0001 37.2139 37.2139C33.0001 41.4276 33 48.2096 33 61.7734V87.2266C33 100.79 33.0001 107.572 37.2139 111.786C41.4276 116 48.2096 116 61.7734 116H87.2266C100.79 116 107.572 116 111.786 111.786C116 107.572 116 100.79 116 87.2266V61.7734C116 48.2096 116 41.4276 111.786 37.2139C107.572 33.0001 100.79 33 87.2266 33H61.7734ZM90.2695 58.1768C90.5751 58.1768 90.8232 58.4249 90.8232 58.7305V86.6729L77.0469 100.449C76.8726 100.623 76.5753 100.5 76.5752 100.254V86.6729H62.8799C62.5744 86.6728 62.3272 86.4256 62.3271 86.1201V72.4248H48.7461C48.4997 72.4247 48.3767 72.1274 48.5508 71.9531L62.3271 58.1768H90.2695Z"
    fill="currentColor" />
</svg>