<svg viewBox="0 0 150 150" fill="none" xmlns="http://www.w3.org/2000/svg">
  <path
    d="M130 0C141.046 0 150 8.95431 150 20V130C150 141.046 141.046 150 130 150H20C8.95431 150 5.63762e-07 141.046 0 130V20C0 8.95431 8.95431 5.63725e-07 20 0H130ZM44.5 73.8184C28.2334 73.8184 18.0667 81.9999 14 98.3633C20.0999 90.1818 27.2165 87.1139 35.3496 89.1592C39.9901 90.3273 43.3073 93.7133 46.9785 97.4609C52.9588 103.568 59.881 110.637 75 110.637C91.2667 110.637 101.433 102.454 105.5 86.0908C99.4001 94.2725 92.2835 97.3411 84.1504 95.2959C79.5099 94.13 76.1928 90.7409 72.5215 86.9932C66.5412 80.8864 59.6189 73.8184 44.5 73.8184ZM75 37C58.7333 37 48.5667 45.1823 44.5 61.5459C50.5999 53.3642 57.7164 50.2956 65.8496 52.3408C70.4901 53.5067 73.8072 56.8958 77.4785 60.6436C83.4587 66.7503 90.3812 73.8184 105.5 73.8184C121.767 73.8184 131.933 65.6361 136 49.2725C129.9 57.4541 122.784 60.5228 114.65 58.4775C110.01 57.3116 106.693 53.9225 103.021 50.1748C97.0413 44.068 90.1188 37 75 37Z"
    fill="currentColor" />
</svg>