<svg viewBox="0 0 150 150" fill="none" xmlns="http://www.w3.org/2000/svg">
  <path
    d="M130 0C141.046 0 150 8.95431 150 20V130C150 141.046 141.046 150 130 150H20C8.95431 150 5.63762e-07 141.046 0 130V20C0 8.95431 8.95431 5.63725e-07 20 0H130ZM113.891 36.7383C111.003 35.9894 104.097 35.7398 101.167 36.3223C92.1275 37.9866 85.8084 43.811 84.0088 52.1318C83.4229 54.5034 83.632 60.4121 84.2598 62.8252C85.0968 65.6126 86.8964 68.9821 88.8633 71.1455C92.295 74.7235 95.9778 77.0537 104.641 80.7148C112.174 84.0433 114.853 85.5414 116.192 87.3721C117.155 88.8282 117.447 89.7024 117.447 91.6162C117.447 93.6963 116.778 95.1939 115.229 96.6084C111.63 99.8537 104.348 100.228 98.9072 97.4404C97.1076 96.4417 94.0109 93.5296 92.6299 91.3662L91.542 89.9102L86.8125 92.6562L80.5352 96.2754L78.9443 97.2744C78.7777 97.5666 81.7486 102.018 83.2969 103.682C87.2308 107.967 93.634 111.296 100.33 112.544C103.469 113.085 110.165 113.168 113.095 112.669C122.427 111.13 128.956 106.428 131.635 99.4795C134.02 93.1139 133.225 84.6265 129.668 79.2178C126.529 74.3915 121.34 71.0208 109.37 65.9033C102.884 63.0743 100.791 61.7013 99.6611 59.4131C99.1589 58.3313 98.9072 57.5824 98.9072 56.251C98.9072 51.8825 102.255 49.2611 107.277 49.5938C110.751 49.8434 112.969 51.1752 115.146 54.2539C115.815 55.3357 116.485 56.0428 116.652 55.918C121.044 53.2151 128.279 48.3513 128.287 48.0967C128.12 47.3478 125.818 44.4347 124.27 42.7705C121.34 39.7333 118.075 37.8198 113.807 36.8213L113.891 36.7383ZM16.126 36.9873V43.8105L16 43.7695V50.5508H37.7627V112.128H53.2061V50.5508H74.9688V43.8945C74.9688 40.15 74.9682 37.1125 74.8008 37.0293C74.8008 36.9045 61.5345 36.8623 45.4219 36.8623L16.126 36.9873Z"
    fill="currentColor" />
</svg>