<svg xmlns="http://www.w3.org/2000/svg" viewBox="0 0 32 32">
  <!-- Заливной фон -->
  <rect width="32" height="32" fill="currentColor" rx="4" ry="4"/>

  <!-- Вырезанный логотип внутри группы (уменьшенный) -->
  <g clip-path="url(#clip-logo)">
    <g transform="scale(0.7) translate(6.8 6.8)">
      <path fill="white" d="M22.23 4.66a3.6 3.6 0 0 1 5.1.04A16.08 16.08 0 0 1 31.97 16a3.6 3.6 0 1 1-7.2 0c0-2.4-.98-4.61-2.58-6.24a3.6 3.6 0 0 1 .03-5.1Z"/>
      <path fill="white" d="M12.4 3.6A3.6 3.6 0 0 1 16 0c4.4 0 8.4 1.8 11.29 4.66a3.6 3.6 0 0 1-5.06 5.13A8.87 8.87 0 0 0 16 7.2a3.6 3.6 0 0 1-3.6-3.6Z"/>
      <path fill="white" d="M0 16A16 16 0 0 1 16 0a3.6 3.6 0 0 1 0 7.2 8.8 8.8 0 0 0-6.21 15.04 3.6 3.6 0 0 1-5.13 5.06A16.08 16.08 0 0 1 0 16Z"/>
      <path fill="white" d="M4.66 22.24a3.6 3.6 0 0 1 5.1-.03 8.87 8.87 0 0 0 6.23 2.59 3.6 3.6 0 0 1 0 7.2c-4.4 0-8.4-1.8-11.3-4.66a3.6 3.6 0 0 1-.03-5.1Z"/>
      <path fill="white" d="M28.38 12.4a3.6 3.6 0 0 1 3.6 3.6A16 16 0 0 1 16 32a3.6 3.6 0 0 1 0-7.2 8.8 8.8 0 0 0 8.8-8.8 3.6 3.6 0 0 1 3.6-3.6Z"/>
      <path fill="white" d="M28.38 12.4a3.6 3.6 0 0 1 3.6 3.6v12.4a3.6 3.6 0 1 1-7.2 0V16a3.6 3.6 0 0 1 3.6-3.6Z"/>
    </g>
  </g>

  <defs>
    <clipPath id="clip-logo">
      <rect width="32" height="32"/>
    </clipPath>
  </defs>
</svg>
